<svg viewBox="-20 -40 280 320" xmlns="http://www.w3.org/2000/svg" role="img" aria-label="Fatboy knight celebrate">
<defs>
  <radialGradient id="body" cx="40%" cy="28%" r="75%">
    <stop offset="0%"  stop-color="#FFF6D0"/>
    <stop offset="35%" stop-color="#FFE082"/>
    <stop offset="70%" stop-color="#F4C752"/>
    <stop offset="100%" stop-color="#C77F18"/>
  </radialGradient>
  <radialGradient id="belly" cx="50%" cy="68%" r="48%">
    <stop offset="0%"  stop-color="#FFFAE0" stop-opacity="0.95"/>
    <stop offset="55%" stop-color="#FFEDB0" stop-opacity="0.55"/>
    <stop offset="100%" stop-color="#F4C752" stop-opacity="0"/>
  </radialGradient>
  <radialGradient id="sheen" cx="50%" cy="50%" r="50%">
    <stop offset="0%"  stop-color="#FFFFFF" stop-opacity="0.85"/>
    <stop offset="50%" stop-color="#FFFFFF" stop-opacity="0.3"/>
    <stop offset="100%" stop-color="#FFFFFF" stop-opacity="0"/>
  </radialGradient>
  <radialGradient id="cheek" cx="50%" cy="50%" r="55%">
    <stop offset="0%"  stop-color="#FF9DAE" stop-opacity="0.95"/>
    <stop offset="60%" stop-color="#FFB3B3" stop-opacity="0.45"/>
    <stop offset="100%" stop-color="#FFB3B3" stop-opacity="0"/>
  </radialGradient>
  <radialGradient id="shadow" cx="50%" cy="50%">
    <stop offset="0%"  stop-color="#000" stop-opacity="0.4"/>
    <stop offset="100%" stop-color="#000" stop-opacity="0"/>
  </radialGradient>
  <radialGradient id="iris" cx="50%" cy="45%" r="60%">
    <stop offset="0%"  stop-color="#3A2418"/>
    <stop offset="80%" stop-color="#1F1208"/>
    <stop offset="100%" stop-color="#0D0703"/>
  </radialGradient>
  <radialGradient id="limb" cx="40%" cy="30%" r="80%">
    <stop offset="0%"  stop-color="#FFD978"/>
    <stop offset="60%" stop-color="#E8A93C"/>
    <stop offset="100%" stop-color="#B8742C"/>
  </radialGradient>
  <radialGradient id="chinShadow" cx="50%" cy="50%" r="50%">
    <stop offset="0%"  stop-color="#C77F18" stop-opacity="0.25"/>
    <stop offset="100%" stop-color="#C77F18" stop-opacity="0"/>
  </radialGradient>
  <linearGradient id="racerRed" x1="0" y1="0" x2="0" y2="1">
    <stop offset="0%" stop-color="#E53935"/>
    <stop offset="100%" stop-color="#8E0000"/>
  </linearGradient>
  <radialGradient id="astroDome" cx="35%" cy="30%" r="70%">
    <stop offset="0%"  stop-color="#E3F2FD" stop-opacity="0.5"/>
    <stop offset="60%" stop-color="#90CAF9" stop-opacity="0.15"/>
    <stop offset="100%" stop-color="#1976D2" stop-opacity="0.1"/>
  </radialGradient>
  <linearGradient id="silver" x1="0" y1="0" x2="0" y2="1">
    <stop offset="0%" stop-color="#ECEFF1"/>
    <stop offset="50%" stop-color="#B0BEC5"/>
    <stop offset="100%" stop-color="#607D8B"/>
  </linearGradient>
  <linearGradient id="wizardPurple" x1="0" y1="0" x2="0" y2="1">
    <stop offset="0%" stop-color="#9C27B0"/>
    <stop offset="100%" stop-color="#4A148C"/>
  </linearGradient>
  <linearGradient id="pirateBlack" x1="0" y1="0" x2="0" y2="1">
    <stop offset="0%" stop-color="#37474F"/>
    <stop offset="100%" stop-color="#000000"/>
  </linearGradient>
  <linearGradient id="ninjaBlack" x1="0" y1="0" x2="0" y2="1">
    <stop offset="0%" stop-color="#263238"/>
    <stop offset="100%" stop-color="#000000"/>
  </linearGradient>
</defs>
<ellipse cx="120" cy="232" rx="62" ry="8" fill="url(#shadow)"/>
<ellipse cx="195" cy="200" rx="11" ry="7" fill="url(#limb)" transform="rotate(28 195 200)"/>
<ellipse cx="201" cy="206" rx="4" ry="3" fill="#FFD978" opacity="0.8"/>
<path d="M 120 35 C 175 35, 205 75, 205 130 C 205 190, 175 220, 120 220 C 65 220, 35 190, 35 130 C 35 75, 65 35, 120 35 Z" fill="url(#body)"/>
<ellipse cx="120" cy="150" rx="60" ry="55" fill="url(#belly)"/>
<ellipse cx="120" cy="190" rx="55" ry="18" fill="url(#chinShadow)"/>
<path d="M 45 140 Q 25 130 12 110" stroke="url(#limb)" stroke-width="16" stroke-linecap="round" fill="none"/>
<path d="M 195 140 Q 215 130 228 110" stroke="url(#limb)" stroke-width="16" stroke-linecap="round" fill="none"/>
<circle cx="10" cy="106" r="14" fill="url(#limb)"/>
<circle cx="230" cy="106" r="14" fill="url(#limb)"/>
<ellipse cx="96" cy="220" rx="20" ry="12" fill="url(#limb)"/>
<ellipse cx="89" cy="215" rx="7" ry="3.5" fill="#FFD978" opacity="0.7"/>
<ellipse cx="144" cy="220" rx="20" ry="12" fill="url(#limb)"/>
<ellipse cx="137" cy="215" rx="7" ry="3.5" fill="#FFD978" opacity="0.7"/>
<ellipse cx="68" cy="150" rx="16" ry="11" fill="url(#cheek)"/>
<ellipse cx="172" cy="150" rx="16" ry="11" fill="url(#cheek)"/>
<ellipse cx="92" cy="120" rx="19" ry="24" fill="#FFFFFF"/>
<ellipse cx="148" cy="120" rx="19" ry="24" fill="#FFFFFF"/>
<ellipse cx="94" cy="124" rx="14" ry="18" fill="url(#iris)"/>
<ellipse cx="150" cy="124" rx="14" ry="18" fill="url(#iris)"/>
<path d="M 92 116 L 95 122 L 101 124 L 95 126 L 92 132 L 89 126 L 83 124 L 89 122 Z" fill="#FFD15C"/>
<path d="M 148 116 L 151 122 L 157 124 L 151 126 L 148 132 L 145 126 L 139 124 L 145 122 Z" fill="#FFD15C"/>
<circle cx="88" cy="114" r="2.5" fill="#FFFFFF"/>
<circle cx="144" cy="114" r="2.5" fill="#FFFFFF"/>
<path d="M 96 158 Q 120 196 144 158 Q 120 174 96 158 Z" fill="#5C2618"/>
<path d="M 108 178 Q 120 192 132 178 Q 120 184 108 178 Z" fill="#FF6B8B"/>
<g>
  <rect x="10" y="45" width="9" height="5" fill="#FFD15C" transform="rotate(20 14 47)"/>
  <rect x="222" y="35" width="9" height="5" fill="#A78BFA" transform="rotate(-30 226 37)"/>
  <rect x="60" y="20" width="7" height="4" fill="#FF6B8B" transform="rotate(45 63 22)"/>
  <rect x="170" y="50" width="7" height="4" fill="#7BC8F6" transform="rotate(60 173 52)"/>
  <rect x="-6" y="85" width="9" height="5" fill="#FFD15C" transform="rotate(-15 -2 87)"/>
  <rect x="240" y="90" width="7" height="4" fill="#FF6B8B" transform="rotate(75 243 92)"/>
  <rect x="80" y="10" width="7" height="4" fill="#A78BFA" transform="rotate(-20 83 12)"/>
  <rect x="150" y="8" width="7" height="4" fill="#7BC8F6" transform="rotate(40 153 10)"/>
  <circle cx="28" cy="22" r="3" fill="#A78BFA"/>
  <circle cx="210" cy="14" r="3" fill="#FFD15C"/>
  <circle cx="120" cy="-2" r="2.5" fill="#FF6B8B"/>
  <circle cx="256" cy="68" r="2.5" fill="#7BC8F6"/>
  <circle cx="-16" cy="62" r="2.5" fill="#FFD15C"/>
</g>
<path d="M 28 100 Q 28 28, 120 22 Q 212 28, 212 100 L 212 105 L 28 105 Z" fill="url(#silver)" stroke="#455A64" stroke-width="2"/>
<rect x="28" y="98" width="184" height="10" fill="#78909C" stroke="#455A64" stroke-width="1"/>
<circle cx="45" cy="103" r="2.5" fill="#37474F"/>
<circle cx="120" cy="103" r="2.5" fill="#37474F"/>
<circle cx="195" cy="103" r="2.5" fill="#37474F"/>
<path d="M 120 22 L 124 90 L 116 90 Z" fill="#78909C"/>
<rect x="115" y="100" width="10" height="22" fill="#90A4AE" stroke="#455A64" stroke-width="1" rx="2"/>
<ellipse cx="80" cy="48" rx="22" ry="14" fill="#FFFFFF" opacity="0.45"/>
<g transform="translate(120 22)">
  <path d="M 0 0 Q -4 -15, -2 -28 Q 0 -36, 4 -32 Q 6 -18, 4 -6 Z" fill="#D32F2F"/>
  <path d="M 0 0 Q -2 -10, 2 -20 Q 6 -28, 8 -22 Q 10 -14, 6 -4 Z" fill="#F44336"/>
  <path d="M 2 -20 Q 4 -10, 4 -2" stroke="#FFCDD2" stroke-width="1" fill="none" opacity="0.6"/>
</g>
</svg>