<svg viewBox="-20 -40 280 320" xmlns="http://www.w3.org/2000/svg" role="img" aria-label="Fatboy mario sleeping">
<defs>
  <radialGradient id="body" cx="40%" cy="28%" r="75%">
    <stop offset="0%"  stop-color="#FFF6D0"/>
    <stop offset="35%" stop-color="#FFE082"/>
    <stop offset="70%" stop-color="#F4C752"/>
    <stop offset="100%" stop-color="#C77F18"/>
  </radialGradient>
  <radialGradient id="belly" cx="50%" cy="68%" r="48%">
    <stop offset="0%"  stop-color="#FFFAE0" stop-opacity="0.95"/>
    <stop offset="55%" stop-color="#FFEDB0" stop-opacity="0.55"/>
    <stop offset="100%" stop-color="#F4C752" stop-opacity="0"/>
  </radialGradient>
  <radialGradient id="sheen" cx="50%" cy="50%" r="50%">
    <stop offset="0%"  stop-color="#FFFFFF" stop-opacity="0.85"/>
    <stop offset="50%" stop-color="#FFFFFF" stop-opacity="0.3"/>
    <stop offset="100%" stop-color="#FFFFFF" stop-opacity="0"/>
  </radialGradient>
  <radialGradient id="cheek" cx="50%" cy="50%" r="55%">
    <stop offset="0%"  stop-color="#FF9DAE" stop-opacity="0.45"/>
    <stop offset="60%" stop-color="#FFB3B3" stop-opacity="0.25"/>
    <stop offset="100%" stop-color="#FFB3B3" stop-opacity="0"/>
  </radialGradient>
  <radialGradient id="shadow" cx="50%" cy="50%">
    <stop offset="0%"  stop-color="#000" stop-opacity="0.4"/>
    <stop offset="100%" stop-color="#000" stop-opacity="0"/>
  </radialGradient>
  <radialGradient id="iris" cx="50%" cy="45%" r="60%">
    <stop offset="0%"  stop-color="#3A2418"/>
    <stop offset="80%" stop-color="#1F1208"/>
    <stop offset="100%" stop-color="#0D0703"/>
  </radialGradient>
  <radialGradient id="limb" cx="40%" cy="30%" r="80%">
    <stop offset="0%"  stop-color="#FFD978"/>
    <stop offset="60%" stop-color="#E8A93C"/>
    <stop offset="100%" stop-color="#B8742C"/>
  </radialGradient>
  <radialGradient id="chinShadow" cx="50%" cy="50%" r="50%">
    <stop offset="0%"  stop-color="#C77F18" stop-opacity="0.25"/>
    <stop offset="100%" stop-color="#C77F18" stop-opacity="0"/>
  </radialGradient>
  <linearGradient id="racerRed" x1="0" y1="0" x2="0" y2="1">
    <stop offset="0%" stop-color="#E53935"/>
    <stop offset="100%" stop-color="#8E0000"/>
  </linearGradient>
  <radialGradient id="astroDome" cx="35%" cy="30%" r="70%">
    <stop offset="0%"  stop-color="#E3F2FD" stop-opacity="0.5"/>
    <stop offset="60%" stop-color="#90CAF9" stop-opacity="0.15"/>
    <stop offset="100%" stop-color="#1976D2" stop-opacity="0.1"/>
  </radialGradient>
  <linearGradient id="silver" x1="0" y1="0" x2="0" y2="1">
    <stop offset="0%" stop-color="#ECEFF1"/>
    <stop offset="50%" stop-color="#B0BEC5"/>
    <stop offset="100%" stop-color="#607D8B"/>
  </linearGradient>
  <linearGradient id="wizardPurple" x1="0" y1="0" x2="0" y2="1">
    <stop offset="0%" stop-color="#9C27B0"/>
    <stop offset="100%" stop-color="#4A148C"/>
  </linearGradient>
  <linearGradient id="pirateBlack" x1="0" y1="0" x2="0" y2="1">
    <stop offset="0%" stop-color="#37474F"/>
    <stop offset="100%" stop-color="#000000"/>
  </linearGradient>
  <linearGradient id="ninjaBlack" x1="0" y1="0" x2="0" y2="1">
    <stop offset="0%" stop-color="#263238"/>
    <stop offset="100%" stop-color="#000000"/>
  </linearGradient>
</defs>
<ellipse cx="120" cy="232" rx="62" ry="8" fill="url(#shadow)"/>
<ellipse cx="195" cy="200" rx="11" ry="7" fill="url(#limb)" transform="rotate(28 195 200)"/>
<ellipse cx="201" cy="206" rx="4" ry="3" fill="#FFD978" opacity="0.8"/>
<path d="M 120 35 C 175 35, 205 75, 205 130 C 205 190, 175 220, 120 220 C 65 220, 35 190, 35 130 C 35 75, 65 35, 120 35 Z" fill="url(#body)"/>
<ellipse cx="120" cy="150" rx="60" ry="55" fill="url(#belly)"/>
<ellipse cx="120" cy="190" rx="55" ry="18" fill="url(#chinShadow)"/>
<ellipse cx="38" cy="170" rx="14" ry="17" fill="url(#limb)"/>
<ellipse cx="202" cy="170" rx="14" ry="17" fill="url(#limb)"/>
<ellipse cx="96" cy="220" rx="20" ry="12" fill="url(#limb)"/>
<ellipse cx="89" cy="215" rx="7" ry="3.5" fill="#FFD978" opacity="0.7"/>
<ellipse cx="144" cy="220" rx="20" ry="12" fill="url(#limb)"/>
<ellipse cx="137" cy="215" rx="7" ry="3.5" fill="#FFD978" opacity="0.7"/>
<ellipse cx="68" cy="150" rx="16" ry="11" fill="url(#cheek)"/>
<ellipse cx="172" cy="150" rx="16" ry="11" fill="url(#cheek)"/>
<line x1="74" y1="124" x2="110" y2="124" stroke="#3A2418" stroke-width="4" stroke-linecap="round"/>
<line x1="130" y1="124" x2="166" y2="124" stroke="#3A2418" stroke-width="4" stroke-linecap="round"/>
<path d="M 76 124 L 73 128" stroke="#3A2418" stroke-width="2" stroke-linecap="round"/>
<path d="M 164 124 L 167 128" stroke="#3A2418" stroke-width="2" stroke-linecap="round"/>
<ellipse cx="120" cy="172" rx="5" ry="3" fill="#5C2618" opacity="0.85"/>
<text x="210" y="82" font-family="Georgia, serif" font-size="16" fill="#A78BFA" font-weight="bold" opacity="0.85">z</text>
<text x="226" y="58" font-family="Georgia, serif" font-size="24" fill="#A78BFA" font-weight="bold" opacity="0.85">Z</text>
<text x="244" y="28" font-family="Georgia, serif" font-size="32" fill="#A78BFA" font-weight="bold" opacity="0.8">Z</text>
<path d="M 35 70 Q 30 25, 120 18 Q 210 25, 205 70 Z" fill="#E53935" stroke="#8E0000" stroke-width="2"/>
<path d="M 30 70 Q 80 85, 120 78 Q 160 85, 210 70 L 210 78 Q 160 92, 120 86 Q 80 92, 30 78 Z" fill="#C62828" stroke="#8E0000" stroke-width="1.5"/>
<ellipse cx="85" cy="42" rx="20" ry="10" fill="#FFFFFF" opacity="0.3"/>
<circle cx="120" cy="48" r="15" fill="#FFFFFF" stroke="#8E0000" stroke-width="1.5"/>
<text x="120" y="55" font-family="Arial Black, sans-serif" font-size="20" font-weight="900" fill="#E53935" text-anchor="middle">M</text>
<g transform="translate(120 158)">
  <path d="M 0 0 Q -8 -2, -18 -1 Q -26 0, -28 4 Q -25 7, -18 6 Q -10 5, -2 4 Z" fill="#2C1810"/>
  <path d="M 0 0 Q 8 -2, 18 -1 Q 26 0, 28 4 Q 25 7, 18 6 Q 10 5, 2 4 Z" fill="#2C1810"/>
  <ellipse cx="0" cy="1" rx="4" ry="3" fill="#2C1810"/>
</g>
</svg>