<svg viewBox="-20 -40 280 320" xmlns="http://www.w3.org/2000/svg" role="img" aria-label="Fatboy racer focused">
<defs>
  <radialGradient id="body" cx="40%" cy="28%" r="75%">
    <stop offset="0%"  stop-color="#FFF6D0"/>
    <stop offset="35%" stop-color="#FFE082"/>
    <stop offset="70%" stop-color="#F4C752"/>
    <stop offset="100%" stop-color="#C77F18"/>
  </radialGradient>
  <radialGradient id="belly" cx="50%" cy="68%" r="48%">
    <stop offset="0%"  stop-color="#FFFAE0" stop-opacity="0.95"/>
    <stop offset="55%" stop-color="#FFEDB0" stop-opacity="0.55"/>
    <stop offset="100%" stop-color="#F4C752" stop-opacity="0"/>
  </radialGradient>
  <radialGradient id="sheen" cx="50%" cy="50%" r="50%">
    <stop offset="0%"  stop-color="#FFFFFF" stop-opacity="0.85"/>
    <stop offset="50%" stop-color="#FFFFFF" stop-opacity="0.3"/>
    <stop offset="100%" stop-color="#FFFFFF" stop-opacity="0"/>
  </radialGradient>
  <radialGradient id="cheek" cx="50%" cy="50%" r="55%">
    <stop offset="0%"  stop-color="#FF9DAE" stop-opacity="0.95"/>
    <stop offset="60%" stop-color="#FFB3B3" stop-opacity="0.45"/>
    <stop offset="100%" stop-color="#FFB3B3" stop-opacity="0"/>
  </radialGradient>
  <radialGradient id="shadow" cx="50%" cy="50%">
    <stop offset="0%"  stop-color="#000" stop-opacity="0.4"/>
    <stop offset="100%" stop-color="#000" stop-opacity="0"/>
  </radialGradient>
  <radialGradient id="iris" cx="50%" cy="45%" r="60%">
    <stop offset="0%"  stop-color="#3A2418"/>
    <stop offset="80%" stop-color="#1F1208"/>
    <stop offset="100%" stop-color="#0D0703"/>
  </radialGradient>
  <radialGradient id="limb" cx="40%" cy="30%" r="80%">
    <stop offset="0%"  stop-color="#FFD978"/>
    <stop offset="60%" stop-color="#E8A93C"/>
    <stop offset="100%" stop-color="#B8742C"/>
  </radialGradient>
  <radialGradient id="chinShadow" cx="50%" cy="50%" r="50%">
    <stop offset="0%"  stop-color="#C77F18" stop-opacity="0.25"/>
    <stop offset="100%" stop-color="#C77F18" stop-opacity="0"/>
  </radialGradient>
  <linearGradient id="racerRed" x1="0" y1="0" x2="0" y2="1">
    <stop offset="0%" stop-color="#E53935"/>
    <stop offset="100%" stop-color="#8E0000"/>
  </linearGradient>
  <radialGradient id="astroDome" cx="35%" cy="30%" r="70%">
    <stop offset="0%"  stop-color="#E3F2FD" stop-opacity="0.5"/>
    <stop offset="60%" stop-color="#90CAF9" stop-opacity="0.15"/>
    <stop offset="100%" stop-color="#1976D2" stop-opacity="0.1"/>
  </radialGradient>
  <linearGradient id="silver" x1="0" y1="0" x2="0" y2="1">
    <stop offset="0%" stop-color="#ECEFF1"/>
    <stop offset="50%" stop-color="#B0BEC5"/>
    <stop offset="100%" stop-color="#607D8B"/>
  </linearGradient>
  <linearGradient id="wizardPurple" x1="0" y1="0" x2="0" y2="1">
    <stop offset="0%" stop-color="#9C27B0"/>
    <stop offset="100%" stop-color="#4A148C"/>
  </linearGradient>
  <linearGradient id="pirateBlack" x1="0" y1="0" x2="0" y2="1">
    <stop offset="0%" stop-color="#37474F"/>
    <stop offset="100%" stop-color="#000000"/>
  </linearGradient>
  <linearGradient id="ninjaBlack" x1="0" y1="0" x2="0" y2="1">
    <stop offset="0%" stop-color="#263238"/>
    <stop offset="100%" stop-color="#000000"/>
  </linearGradient>
</defs>
<ellipse cx="120" cy="232" rx="62" ry="8" fill="url(#shadow)"/>
<ellipse cx="195" cy="200" rx="11" ry="7" fill="url(#limb)" transform="rotate(28 195 200)"/>
<ellipse cx="201" cy="206" rx="4" ry="3" fill="#FFD978" opacity="0.8"/>
<path d="M 120 35 C 175 35, 205 75, 205 130 C 205 190, 175 220, 120 220 C 65 220, 35 190, 35 130 C 35 75, 65 35, 120 35 Z" fill="url(#body)"/>
<ellipse cx="120" cy="150" rx="60" ry="55" fill="url(#belly)"/>
<ellipse cx="120" cy="190" rx="55" ry="18" fill="url(#chinShadow)"/>
<circle cx="40" cy="155" r="17" fill="url(#limb)"/>
<line x1="30" y1="155" x2="50" y2="155" stroke="#B8742C" stroke-width="1.3" opacity="0.6"/>
<ellipse cx="34" cy="148" rx="5" ry="3" fill="#FFD978" opacity="0.7"/>
<circle cx="200" cy="155" r="17" fill="url(#limb)"/>
<line x1="190" y1="155" x2="210" y2="155" stroke="#B8742C" stroke-width="1.3" opacity="0.6"/>
<ellipse cx="206" cy="148" rx="5" ry="3" fill="#FFD978" opacity="0.7"/>
<ellipse cx="96" cy="220" rx="20" ry="12" fill="url(#limb)"/>
<ellipse cx="89" cy="215" rx="7" ry="3.5" fill="#FFD978" opacity="0.7"/>
<ellipse cx="144" cy="220" rx="20" ry="12" fill="url(#limb)"/>
<ellipse cx="137" cy="215" rx="7" ry="3.5" fill="#FFD978" opacity="0.7"/>
<ellipse cx="68" cy="150" rx="16" ry="11" fill="url(#cheek)"/>
<ellipse cx="172" cy="150" rx="16" ry="11" fill="url(#cheek)"/>
<path d="M 75 122 Q 92 110 109 122 Q 92 132 75 122 Z" fill="url(#iris)"/>
<path d="M 131 122 Q 148 110 165 122 Q 148 132 131 122 Z" fill="url(#iris)"/>
<circle cx="89" cy="119" r="2" fill="#FFFFFF"/>
<circle cx="145" cy="119" r="2" fill="#FFFFFF"/>
<path d="M 72 100 Q 88 96 102 105" stroke="#3D2817" stroke-width="4" stroke-linecap="round" fill="none"/>
<path d="M 138 105 Q 152 96 168 100" stroke="#3D2817" stroke-width="4" stroke-linecap="round" fill="none"/>
<path d="M 108 170 Q 120 174 132 170" stroke="#5C2618" stroke-width="3.5" stroke-linecap="round" fill="none"/>
<path d="M -12 125 L 4 125" stroke="#A78BFA" stroke-width="3" stroke-linecap="round" opacity="0.85"/>
<path d="M 236 125 L 252 125" stroke="#A78BFA" stroke-width="3" stroke-linecap="round" opacity="0.85"/>
<path d="M -8 150 L 6 150" stroke="#A78BFA" stroke-width="2.5" stroke-linecap="round" opacity="0.55"/>
<path d="M 234 150 L 248 150" stroke="#A78BFA" stroke-width="2.5" stroke-linecap="round" opacity="0.55"/>
<path d="M -4 100 L 8 100" stroke="#A78BFA" stroke-width="2.5" stroke-linecap="round" opacity="0.55"/>
<path d="M 232 100 L 244 100" stroke="#A78BFA" stroke-width="2.5" stroke-linecap="round" opacity="0.55"/>
<path d="M 30 95 Q 30 30, 120 25 Q 210 30, 210 95 L 210 102 L 30 102 Z" fill="url(#racerRed)" stroke="#5A0E0E" stroke-width="2"/>
<path d="M 32 95 Q 32 38, 120 30 Q 208 38, 208 95 L 208 100 L 32 100 Z" fill="none" stroke="#FFFFFF" stroke-width="1" opacity="0.2"/>
<ellipse cx="80" cy="55" rx="22" ry="14" fill="#FFFFFF" opacity="0.35"/>
<rect x="30" y="55" width="180" height="14" fill="#FFFFFF"/>
<text x="120" y="50" font-family="Arial Black, sans-serif" font-size="22" font-weight="900" fill="#FFFFFF" text-anchor="middle" stroke="#5A0E0E" stroke-width="1">7</text>
<rect x="30" y="88" width="180" height="6" fill="#1A1A1A"/>
<ellipse cx="80" cy="91" rx="12" ry="8" fill="#37474F" stroke="#1A1A1A" stroke-width="2"/>
<ellipse cx="77" cy="89" rx="4" ry="3" fill="#7BC8F6" opacity="0.7"/>
<ellipse cx="160" cy="91" rx="12" ry="8" fill="#37474F" stroke="#1A1A1A" stroke-width="2"/>
<ellipse cx="157" cy="89" rx="4" ry="3" fill="#7BC8F6" opacity="0.7"/>
</svg>