<svg viewBox="-20 -40 280 320" xmlns="http://www.w3.org/2000/svg" role="img" aria-label="Fatboy wizard celebrate">
<defs>
  <radialGradient id="body" cx="40%" cy="28%" r="75%">
    <stop offset="0%"  stop-color="#FFF6D0"/>
    <stop offset="35%" stop-color="#FFE082"/>
    <stop offset="70%" stop-color="#F4C752"/>
    <stop offset="100%" stop-color="#C77F18"/>
  </radialGradient>
  <radialGradient id="belly" cx="50%" cy="68%" r="48%">
    <stop offset="0%"  stop-color="#FFFAE0" stop-opacity="0.95"/>
    <stop offset="55%" stop-color="#FFEDB0" stop-opacity="0.55"/>
    <stop offset="100%" stop-color="#F4C752" stop-opacity="0"/>
  </radialGradient>
  <radialGradient id="sheen" cx="50%" cy="50%" r="50%">
    <stop offset="0%"  stop-color="#FFFFFF" stop-opacity="0.85"/>
    <stop offset="50%" stop-color="#FFFFFF" stop-opacity="0.3"/>
    <stop offset="100%" stop-color="#FFFFFF" stop-opacity="0"/>
  </radialGradient>
  <radialGradient id="cheek" cx="50%" cy="50%" r="55%">
    <stop offset="0%"  stop-color="#FF9DAE" stop-opacity="0.95"/>
    <stop offset="60%" stop-color="#FFB3B3" stop-opacity="0.45"/>
    <stop offset="100%" stop-color="#FFB3B3" stop-opacity="0"/>
  </radialGradient>
  <radialGradient id="shadow" cx="50%" cy="50%">
    <stop offset="0%"  stop-color="#000" stop-opacity="0.4"/>
    <stop offset="100%" stop-color="#000" stop-opacity="0"/>
  </radialGradient>
  <radialGradient id="iris" cx="50%" cy="45%" r="60%">
    <stop offset="0%"  stop-color="#3A2418"/>
    <stop offset="80%" stop-color="#1F1208"/>
    <stop offset="100%" stop-color="#0D0703"/>
  </radialGradient>
  <radialGradient id="limb" cx="40%" cy="30%" r="80%">
    <stop offset="0%"  stop-color="#FFD978"/>
    <stop offset="60%" stop-color="#E8A93C"/>
    <stop offset="100%" stop-color="#B8742C"/>
  </radialGradient>
  <radialGradient id="chinShadow" cx="50%" cy="50%" r="50%">
    <stop offset="0%"  stop-color="#C77F18" stop-opacity="0.25"/>
    <stop offset="100%" stop-color="#C77F18" stop-opacity="0"/>
  </radialGradient>
  <linearGradient id="racerRed" x1="0" y1="0" x2="0" y2="1">
    <stop offset="0%" stop-color="#E53935"/>
    <stop offset="100%" stop-color="#8E0000"/>
  </linearGradient>
  <radialGradient id="astroDome" cx="35%" cy="30%" r="70%">
    <stop offset="0%"  stop-color="#E3F2FD" stop-opacity="0.5"/>
    <stop offset="60%" stop-color="#90CAF9" stop-opacity="0.15"/>
    <stop offset="100%" stop-color="#1976D2" stop-opacity="0.1"/>
  </radialGradient>
  <linearGradient id="silver" x1="0" y1="0" x2="0" y2="1">
    <stop offset="0%" stop-color="#ECEFF1"/>
    <stop offset="50%" stop-color="#B0BEC5"/>
    <stop offset="100%" stop-color="#607D8B"/>
  </linearGradient>
  <linearGradient id="wizardPurple" x1="0" y1="0" x2="0" y2="1">
    <stop offset="0%" stop-color="#9C27B0"/>
    <stop offset="100%" stop-color="#4A148C"/>
  </linearGradient>
  <linearGradient id="pirateBlack" x1="0" y1="0" x2="0" y2="1">
    <stop offset="0%" stop-color="#37474F"/>
    <stop offset="100%" stop-color="#000000"/>
  </linearGradient>
  <linearGradient id="ninjaBlack" x1="0" y1="0" x2="0" y2="1">
    <stop offset="0%" stop-color="#263238"/>
    <stop offset="100%" stop-color="#000000"/>
  </linearGradient>
</defs>
<ellipse cx="120" cy="232" rx="62" ry="8" fill="url(#shadow)"/>
<ellipse cx="195" cy="200" rx="11" ry="7" fill="url(#limb)" transform="rotate(28 195 200)"/>
<ellipse cx="201" cy="206" rx="4" ry="3" fill="#FFD978" opacity="0.8"/>
<path d="M 120 35 C 175 35, 205 75, 205 130 C 205 190, 175 220, 120 220 C 65 220, 35 190, 35 130 C 35 75, 65 35, 120 35 Z" fill="url(#body)"/>
<ellipse cx="120" cy="150" rx="60" ry="55" fill="url(#belly)"/>
<ellipse cx="120" cy="190" rx="55" ry="18" fill="url(#chinShadow)"/>
<ellipse cx="92" cy="62" rx="32" ry="18" fill="url(#sheen)"/>
<ellipse cx="78" cy="55" rx="9" ry="5" fill="#FFFFFF" opacity="0.7"/>
<path d="M 45 140 Q 25 130 12 110" stroke="url(#limb)" stroke-width="16" stroke-linecap="round" fill="none"/>
<path d="M 195 140 Q 215 130 228 110" stroke="url(#limb)" stroke-width="16" stroke-linecap="round" fill="none"/>
<circle cx="10" cy="106" r="14" fill="url(#limb)"/>
<circle cx="230" cy="106" r="14" fill="url(#limb)"/>
<ellipse cx="96" cy="220" rx="20" ry="12" fill="url(#limb)"/>
<ellipse cx="89" cy="215" rx="7" ry="3.5" fill="#FFD978" opacity="0.7"/>
<ellipse cx="144" cy="220" rx="20" ry="12" fill="url(#limb)"/>
<ellipse cx="137" cy="215" rx="7" ry="3.5" fill="#FFD978" opacity="0.7"/>
<ellipse cx="68" cy="150" rx="16" ry="11" fill="url(#cheek)"/>
<ellipse cx="172" cy="150" rx="16" ry="11" fill="url(#cheek)"/>
<ellipse cx="92" cy="120" rx="19" ry="24" fill="#FFFFFF"/>
<ellipse cx="148" cy="120" rx="19" ry="24" fill="#FFFFFF"/>
<ellipse cx="94" cy="124" rx="14" ry="18" fill="url(#iris)"/>
<ellipse cx="150" cy="124" rx="14" ry="18" fill="url(#iris)"/>
<path d="M 92 116 L 95 122 L 101 124 L 95 126 L 92 132 L 89 126 L 83 124 L 89 122 Z" fill="#FFD15C"/>
<path d="M 148 116 L 151 122 L 157 124 L 151 126 L 148 132 L 145 126 L 139 124 L 145 122 Z" fill="#FFD15C"/>
<circle cx="88" cy="114" r="2.5" fill="#FFFFFF"/>
<circle cx="144" cy="114" r="2.5" fill="#FFFFFF"/>
<path d="M 96 158 Q 120 196 144 158 Q 120 174 96 158 Z" fill="#5C2618"/>
<path d="M 108 178 Q 120 192 132 178 Q 120 184 108 178 Z" fill="#FF6B8B"/>
<g>
  <rect x="10" y="45" width="9" height="5" fill="#FFD15C" transform="rotate(20 14 47)"/>
  <rect x="222" y="35" width="9" height="5" fill="#A78BFA" transform="rotate(-30 226 37)"/>
  <rect x="60" y="20" width="7" height="4" fill="#FF6B8B" transform="rotate(45 63 22)"/>
  <rect x="170" y="50" width="7" height="4" fill="#7BC8F6" transform="rotate(60 173 52)"/>
  <rect x="-6" y="85" width="9" height="5" fill="#FFD15C" transform="rotate(-15 -2 87)"/>
  <rect x="240" y="90" width="7" height="4" fill="#FF6B8B" transform="rotate(75 243 92)"/>
  <rect x="80" y="10" width="7" height="4" fill="#A78BFA" transform="rotate(-20 83 12)"/>
  <rect x="150" y="8" width="7" height="4" fill="#7BC8F6" transform="rotate(40 153 10)"/>
  <circle cx="28" cy="22" r="3" fill="#A78BFA"/>
  <circle cx="210" cy="14" r="3" fill="#FFD15C"/>
  <circle cx="120" cy="-2" r="2.5" fill="#FF6B8B"/>
  <circle cx="256" cy="68" r="2.5" fill="#7BC8F6"/>
  <circle cx="-16" cy="62" r="2.5" fill="#FFD15C"/>
</g>
<ellipse cx="120" cy="65" rx="95" ry="14" fill="#5E1187" stroke="#3D0058" stroke-width="2"/>
<ellipse cx="120" cy="63" rx="92" ry="10" fill="url(#wizardPurple)"/>
<path d="M 55 65 Q 70 50, 95 30 Q 115 10, 140 -10 Q 150 -16, 155 -8 Q 160 0, 155 8 Q 145 25, 175 65 Z" fill="url(#wizardPurple)" stroke="#3D0058" stroke-width="2"/>
<circle cx="151" cy="-7" r="4" fill="#FFD600" stroke="#B8860B" stroke-width="1"/>
<path d="M 58 60 Q 70 50, 95 35 Q 100 38, 80 56 Q 65 64, 58 60 Z" fill="#FFD600" stroke="#B8860B" stroke-width="1"/>
<g transform="translate(112 35)">
  <circle cx="0" cy="0" r="7" fill="#FFD600"/>
  <circle cx="3" cy="-1" r="6" fill="url(#wizardPurple)"/>
</g>
<g fill="#FFD600">
  <path d="M 92 50 L 94 54 L 98 55 L 94 56 L 92 60 L 90 56 L 86 55 L 90 54 Z"/>
  <path d="M 130 20 L 131.5 23.5 L 135 24.5 L 131.5 25.5 L 130 29 L 128.5 25.5 L 125 24.5 L 128.5 23.5 Z"/>
  <path d="M 145 50 L 146 52.5 L 148.5 53 L 146 54 L 145 56.5 L 144 54 L 141.5 53 L 144 52.5 Z"/>
</g>
<path d="M 70 55 Q 95 40, 110 30" stroke="#FFFFFF" stroke-width="2" fill="none" opacity="0.3" stroke-linecap="round"/>
</svg>