<svg viewBox="-20 -40 280 320" xmlns="http://www.w3.org/2000/svg" role="img" aria-label="Fatboy wizard tense">
<defs>
  <radialGradient id="body" cx="40%" cy="28%" r="75%">
    <stop offset="0%"  stop-color="#FFF6D0"/>
    <stop offset="35%" stop-color="#FFE082"/>
    <stop offset="70%" stop-color="#F4C752"/>
    <stop offset="100%" stop-color="#C77F18"/>
  </radialGradient>
  <radialGradient id="belly" cx="50%" cy="68%" r="48%">
    <stop offset="0%"  stop-color="#FFFAE0" stop-opacity="0.95"/>
    <stop offset="55%" stop-color="#FFEDB0" stop-opacity="0.55"/>
    <stop offset="100%" stop-color="#F4C752" stop-opacity="0"/>
  </radialGradient>
  <radialGradient id="sheen" cx="50%" cy="50%" r="50%">
    <stop offset="0%"  stop-color="#FFFFFF" stop-opacity="0.85"/>
    <stop offset="50%" stop-color="#FFFFFF" stop-opacity="0.3"/>
    <stop offset="100%" stop-color="#FFFFFF" stop-opacity="0"/>
  </radialGradient>
  <radialGradient id="cheek" cx="50%" cy="50%" r="55%">
    <stop offset="0%"  stop-color="#FF9DAE" stop-opacity="0.95"/>
    <stop offset="60%" stop-color="#FFB3B3" stop-opacity="0.45"/>
    <stop offset="100%" stop-color="#FFB3B3" stop-opacity="0"/>
  </radialGradient>
  <radialGradient id="shadow" cx="50%" cy="50%">
    <stop offset="0%"  stop-color="#000" stop-opacity="0.4"/>
    <stop offset="100%" stop-color="#000" stop-opacity="0"/>
  </radialGradient>
  <radialGradient id="iris" cx="50%" cy="45%" r="60%">
    <stop offset="0%"  stop-color="#3A2418"/>
    <stop offset="80%" stop-color="#1F1208"/>
    <stop offset="100%" stop-color="#0D0703"/>
  </radialGradient>
  <radialGradient id="limb" cx="40%" cy="30%" r="80%">
    <stop offset="0%"  stop-color="#FFD978"/>
    <stop offset="60%" stop-color="#E8A93C"/>
    <stop offset="100%" stop-color="#B8742C"/>
  </radialGradient>
  <radialGradient id="chinShadow" cx="50%" cy="50%" r="50%">
    <stop offset="0%"  stop-color="#C77F18" stop-opacity="0.25"/>
    <stop offset="100%" stop-color="#C77F18" stop-opacity="0"/>
  </radialGradient>
  <linearGradient id="racerRed" x1="0" y1="0" x2="0" y2="1">
    <stop offset="0%" stop-color="#E53935"/>
    <stop offset="100%" stop-color="#8E0000"/>
  </linearGradient>
  <radialGradient id="astroDome" cx="35%" cy="30%" r="70%">
    <stop offset="0%"  stop-color="#E3F2FD" stop-opacity="0.5"/>
    <stop offset="60%" stop-color="#90CAF9" stop-opacity="0.15"/>
    <stop offset="100%" stop-color="#1976D2" stop-opacity="0.1"/>
  </radialGradient>
  <linearGradient id="silver" x1="0" y1="0" x2="0" y2="1">
    <stop offset="0%" stop-color="#ECEFF1"/>
    <stop offset="50%" stop-color="#B0BEC5"/>
    <stop offset="100%" stop-color="#607D8B"/>
  </linearGradient>
  <linearGradient id="wizardPurple" x1="0" y1="0" x2="0" y2="1">
    <stop offset="0%" stop-color="#9C27B0"/>
    <stop offset="100%" stop-color="#4A148C"/>
  </linearGradient>
  <linearGradient id="pirateBlack" x1="0" y1="0" x2="0" y2="1">
    <stop offset="0%" stop-color="#37474F"/>
    <stop offset="100%" stop-color="#000000"/>
  </linearGradient>
  <linearGradient id="ninjaBlack" x1="0" y1="0" x2="0" y2="1">
    <stop offset="0%" stop-color="#263238"/>
    <stop offset="100%" stop-color="#000000"/>
  </linearGradient>
</defs>
<ellipse cx="120" cy="232" rx="62" ry="8" fill="url(#shadow)"/>
<ellipse cx="195" cy="200" rx="11" ry="7" fill="url(#limb)" transform="rotate(28 195 200)"/>
<ellipse cx="201" cy="206" rx="4" ry="3" fill="#FFD978" opacity="0.8"/>
<path d="M 120 35 C 175 35, 205 75, 205 130 C 205 190, 175 220, 120 220 C 65 220, 35 190, 35 130 C 35 75, 65 35, 120 35 Z" fill="url(#body)"/>
<ellipse cx="120" cy="150" rx="60" ry="55" fill="url(#belly)"/>
<ellipse cx="120" cy="190" rx="55" ry="18" fill="url(#chinShadow)"/>
<ellipse cx="92" cy="62" rx="32" ry="18" fill="url(#sheen)"/>
<ellipse cx="78" cy="55" rx="9" ry="5" fill="#FFFFFF" opacity="0.7"/>
<circle cx="46" cy="138" r="16" fill="url(#limb)"/>
<line x1="36" y1="138" x2="56" y2="138" stroke="#B8742C" stroke-width="1.3" opacity="0.6"/>
<circle cx="194" cy="138" r="16" fill="url(#limb)"/>
<line x1="184" y1="138" x2="204" y2="138" stroke="#B8742C" stroke-width="1.3" opacity="0.6"/>
<ellipse cx="96" cy="220" rx="20" ry="12" fill="url(#limb)"/>
<ellipse cx="89" cy="215" rx="7" ry="3.5" fill="#FFD978" opacity="0.7"/>
<ellipse cx="144" cy="220" rx="20" ry="12" fill="url(#limb)"/>
<ellipse cx="137" cy="215" rx="7" ry="3.5" fill="#FFD978" opacity="0.7"/>
<ellipse cx="68" cy="150" rx="16" ry="11" fill="url(#cheek)"/>
<ellipse cx="172" cy="150" rx="16" ry="11" fill="url(#cheek)"/>
<ellipse cx="92" cy="122" rx="16" ry="20" fill="#FFFFFF"/>
<ellipse cx="148" cy="122" rx="16" ry="20" fill="#FFFFFF"/>
<ellipse cx="92" cy="128" rx="8" ry="11" fill="url(#iris)"/>
<ellipse cx="148" cy="128" rx="8" ry="11" fill="url(#iris)"/>
<circle cx="89" cy="122" r="2.5" fill="#FFFFFF"/>
<circle cx="145" cy="122" r="2.5" fill="#FFFFFF"/>
<path d="M 105 100 Q 88 95 72 102" stroke="#3D2817" stroke-width="3.5" stroke-linecap="round" fill="none"/>
<path d="M 135 100 Q 152 95 168 102" stroke="#3D2817" stroke-width="3.5" stroke-linecap="round" fill="none"/>
<rect x="105" y="166" width="30" height="10" rx="2" fill="#FFFFFF" stroke="#5C2618" stroke-width="2"/>
<line x1="113" y1="166" x2="113" y2="176" stroke="#5C2618" stroke-width="1.3"/>
<line x1="120" y1="166" x2="120" y2="176" stroke="#5C2618" stroke-width="1.3"/>
<line x1="127" y1="166" x2="127" y2="176" stroke="#5C2618" stroke-width="1.3"/>
<path d="M 60 80 Q 53 95 60 102 Q 67 95 60 80 Z" fill="#7BC8F6" opacity="0.95"/>
<ellipse cx="59" cy="92" rx="2" ry="3" fill="#FFFFFF" opacity="0.7"/>
<path d="M 175 95 Q 170 106 175 112 Q 180 106 175 95 Z" fill="#7BC8F6" opacity="0.95"/>
<ellipse cx="120" cy="65" rx="95" ry="14" fill="#5E1187" stroke="#3D0058" stroke-width="2"/>
<ellipse cx="120" cy="63" rx="92" ry="10" fill="url(#wizardPurple)"/>
<path d="M 55 65 Q 70 50, 95 30 Q 115 10, 140 -10 Q 150 -16, 155 -8 Q 160 0, 155 8 Q 145 25, 175 65 Z" fill="url(#wizardPurple)" stroke="#3D0058" stroke-width="2"/>
<circle cx="151" cy="-7" r="4" fill="#FFD600" stroke="#B8860B" stroke-width="1"/>
<path d="M 58 60 Q 70 50, 95 35 Q 100 38, 80 56 Q 65 64, 58 60 Z" fill="#FFD600" stroke="#B8860B" stroke-width="1"/>
<g transform="translate(112 35)">
  <circle cx="0" cy="0" r="7" fill="#FFD600"/>
  <circle cx="3" cy="-1" r="6" fill="url(#wizardPurple)"/>
</g>
<g fill="#FFD600">
  <path d="M 92 50 L 94 54 L 98 55 L 94 56 L 92 60 L 90 56 L 86 55 L 90 54 Z"/>
  <path d="M 130 20 L 131.5 23.5 L 135 24.5 L 131.5 25.5 L 130 29 L 128.5 25.5 L 125 24.5 L 128.5 23.5 Z"/>
  <path d="M 145 50 L 146 52.5 L 148.5 53 L 146 54 L 145 56.5 L 144 54 L 141.5 53 L 144 52.5 Z"/>
</g>
<path d="M 70 55 Q 95 40, 110 30" stroke="#FFFFFF" stroke-width="2" fill="none" opacity="0.3" stroke-linecap="round"/>
</svg>