<svg viewBox="-20 -40 280 320" xmlns="http://www.w3.org/2000/svg" role="img" aria-label="Fatboy astronaut thinking">
<defs>
  <radialGradient id="body" cx="40%" cy="28%" r="75%">
    <stop offset="0%"  stop-color="#FFF6D0"/>
    <stop offset="35%" stop-color="#FFE082"/>
    <stop offset="70%" stop-color="#F4C752"/>
    <stop offset="100%" stop-color="#C77F18"/>
  </radialGradient>
  <radialGradient id="belly" cx="50%" cy="68%" r="48%">
    <stop offset="0%"  stop-color="#FFFAE0" stop-opacity="0.95"/>
    <stop offset="55%" stop-color="#FFEDB0" stop-opacity="0.55"/>
    <stop offset="100%" stop-color="#F4C752" stop-opacity="0"/>
  </radialGradient>
  <radialGradient id="sheen" cx="50%" cy="50%" r="50%">
    <stop offset="0%"  stop-color="#FFFFFF" stop-opacity="0.85"/>
    <stop offset="50%" stop-color="#FFFFFF" stop-opacity="0.3"/>
    <stop offset="100%" stop-color="#FFFFFF" stop-opacity="0"/>
  </radialGradient>
  <radialGradient id="cheek" cx="50%" cy="50%" r="55%">
    <stop offset="0%"  stop-color="#FF9DAE" stop-opacity="0.95"/>
    <stop offset="60%" stop-color="#FFB3B3" stop-opacity="0.45"/>
    <stop offset="100%" stop-color="#FFB3B3" stop-opacity="0"/>
  </radialGradient>
  <radialGradient id="shadow" cx="50%" cy="50%">
    <stop offset="0%"  stop-color="#000" stop-opacity="0.4"/>
    <stop offset="100%" stop-color="#000" stop-opacity="0"/>
  </radialGradient>
  <radialGradient id="iris" cx="50%" cy="45%" r="60%">
    <stop offset="0%"  stop-color="#3A2418"/>
    <stop offset="80%" stop-color="#1F1208"/>
    <stop offset="100%" stop-color="#0D0703"/>
  </radialGradient>
  <radialGradient id="limb" cx="40%" cy="30%" r="80%">
    <stop offset="0%"  stop-color="#FFD978"/>
    <stop offset="60%" stop-color="#E8A93C"/>
    <stop offset="100%" stop-color="#B8742C"/>
  </radialGradient>
  <radialGradient id="chinShadow" cx="50%" cy="50%" r="50%">
    <stop offset="0%"  stop-color="#C77F18" stop-opacity="0.25"/>
    <stop offset="100%" stop-color="#C77F18" stop-opacity="0"/>
  </radialGradient>
  <linearGradient id="racerRed" x1="0" y1="0" x2="0" y2="1">
    <stop offset="0%" stop-color="#E53935"/>
    <stop offset="100%" stop-color="#8E0000"/>
  </linearGradient>
  <radialGradient id="astroDome" cx="35%" cy="30%" r="70%">
    <stop offset="0%"  stop-color="#E3F2FD" stop-opacity="0.5"/>
    <stop offset="60%" stop-color="#90CAF9" stop-opacity="0.15"/>
    <stop offset="100%" stop-color="#1976D2" stop-opacity="0.1"/>
  </radialGradient>
  <linearGradient id="silver" x1="0" y1="0" x2="0" y2="1">
    <stop offset="0%" stop-color="#ECEFF1"/>
    <stop offset="50%" stop-color="#B0BEC5"/>
    <stop offset="100%" stop-color="#607D8B"/>
  </linearGradient>
  <linearGradient id="wizardPurple" x1="0" y1="0" x2="0" y2="1">
    <stop offset="0%" stop-color="#9C27B0"/>
    <stop offset="100%" stop-color="#4A148C"/>
  </linearGradient>
  <linearGradient id="pirateBlack" x1="0" y1="0" x2="0" y2="1">
    <stop offset="0%" stop-color="#37474F"/>
    <stop offset="100%" stop-color="#000000"/>
  </linearGradient>
  <linearGradient id="ninjaBlack" x1="0" y1="0" x2="0" y2="1">
    <stop offset="0%" stop-color="#263238"/>
    <stop offset="100%" stop-color="#000000"/>
  </linearGradient>
</defs>
<ellipse cx="120" cy="232" rx="62" ry="8" fill="url(#shadow)"/>
<ellipse cx="195" cy="200" rx="11" ry="7" fill="url(#limb)" transform="rotate(28 195 200)"/>
<ellipse cx="201" cy="206" rx="4" ry="3" fill="#FFD978" opacity="0.8"/>
<path d="M 120 35 C 175 35, 205 75, 205 130 C 205 190, 175 220, 120 220 C 65 220, 35 190, 35 130 C 35 75, 65 35, 120 35 Z" fill="url(#body)"/>
<ellipse cx="120" cy="150" rx="60" ry="55" fill="url(#belly)"/>
<ellipse cx="120" cy="190" rx="55" ry="18" fill="url(#chinShadow)"/>
<ellipse cx="38" cy="160" rx="14" ry="17" fill="url(#limb)"/>
<ellipse cx="32" cy="155" rx="5" ry="3" fill="#FFD978" opacity="0.7"/>
<ellipse cx="148" cy="178" rx="13" ry="15" fill="url(#limb)" transform="rotate(-35 148 178)"/>
<ellipse cx="96" cy="220" rx="20" ry="12" fill="url(#limb)"/>
<ellipse cx="89" cy="215" rx="7" ry="3.5" fill="#FFD978" opacity="0.7"/>
<ellipse cx="144" cy="220" rx="20" ry="12" fill="url(#limb)"/>
<ellipse cx="137" cy="215" rx="7" ry="3.5" fill="#FFD978" opacity="0.7"/>
<ellipse cx="68" cy="150" rx="16" ry="11" fill="url(#cheek)"/>
<ellipse cx="172" cy="150" rx="16" ry="11" fill="url(#cheek)"/>
<ellipse cx="92" cy="120" rx="17" ry="22" fill="#FFFFFF"/>
<ellipse cx="148" cy="120" rx="17" ry="22" fill="#FFFFFF"/>
<ellipse cx="98" cy="115" rx="11" ry="14" fill="url(#iris)"/>
<ellipse cx="154" cy="115" rx="11" ry="14" fill="url(#iris)"/>
<ellipse cx="93" cy="108" rx="4" ry="5" fill="#FFFFFF"/>
<ellipse cx="149" cy="108" rx="4" ry="5" fill="#FFFFFF"/>
<circle cx="103" cy="120" r="1.8" fill="#FFFFFF" opacity="0.85"/>
<circle cx="159" cy="120" r="1.8" fill="#FFFFFF" opacity="0.85"/>
<path d="M 110 172 Q 120 168 130 172" stroke="#5C2618" stroke-width="3" stroke-linecap="round" fill="none"/>
<circle cx="195" cy="78" r="3.5" fill="#FFFFFF" opacity="0.7"/>
<circle cx="208" cy="60" r="6" fill="#FFFFFF" opacity="0.8"/>
<circle cx="222" cy="38" r="13" fill="#FFFFFF" opacity="0.92"/>
<text x="222" y="44" font-family="Georgia, serif" font-size="18" font-weight="bold" fill="#5C4B2A" text-anchor="middle">?</text>
<ellipse cx="120" cy="195" rx="80" ry="14" fill="url(#silver)" stroke="#455A64" stroke-width="2"/>
<ellipse cx="120" cy="195" rx="76" ry="10" fill="none" stroke="#455A64" stroke-width="1"/>
<circle cx="55" cy="195" r="3" fill="#FFD600"/>
<circle cx="185" cy="195" r="3" fill="#4FC3F7"/>
<circle cx="120" cy="130" r="100" fill="url(#astroDome)" stroke="#B0BEC5" stroke-width="3"/>
<path d="M 55 80 Q 90 35 145 35" stroke="#FFFFFF" stroke-width="4" fill="none" opacity="0.65" stroke-linecap="round"/>
<path d="M 60 95 Q 78 70 100 60" stroke="#FFFFFF" stroke-width="2.5" fill="none" opacity="0.5" stroke-linecap="round"/>
<line x1="180" y1="50" x2="195" y2="22" stroke="#90A4AE" stroke-width="3" stroke-linecap="round"/>
<circle cx="195" cy="20" r="5" fill="#FF5252"/>
<circle cx="194" cy="19" r="2" fill="#FFCDD2" opacity="0.9"/>
<rect x="100" y="180" width="40" height="10" rx="2" fill="#1A237E" stroke="#0D1442" stroke-width="1"/>
<text x="120" y="188" font-family="Arial Black, sans-serif" font-size="8" font-weight="900" fill="#FFFFFF" text-anchor="middle">SPACE</text>
</svg>