<svg viewBox="-20 -40 280 320" xmlns="http://www.w3.org/2000/svg" role="img" aria-label="Fatboy wizard resting">
<defs>
  <radialGradient id="body" cx="40%" cy="28%" r="75%">
    <stop offset="0%"  stop-color="#FFF6D0"/>
    <stop offset="35%" stop-color="#FFE082"/>
    <stop offset="70%" stop-color="#F4C752"/>
    <stop offset="100%" stop-color="#C77F18"/>
  </radialGradient>
  <radialGradient id="belly" cx="50%" cy="68%" r="48%">
    <stop offset="0%"  stop-color="#FFFAE0" stop-opacity="0.95"/>
    <stop offset="55%" stop-color="#FFEDB0" stop-opacity="0.55"/>
    <stop offset="100%" stop-color="#F4C752" stop-opacity="0"/>
  </radialGradient>
  <radialGradient id="sheen" cx="50%" cy="50%" r="50%">
    <stop offset="0%"  stop-color="#FFFFFF" stop-opacity="0.85"/>
    <stop offset="50%" stop-color="#FFFFFF" stop-opacity="0.3"/>
    <stop offset="100%" stop-color="#FFFFFF" stop-opacity="0"/>
  </radialGradient>
  <radialGradient id="cheek" cx="50%" cy="50%" r="55%">
    <stop offset="0%"  stop-color="#FF9DAE" stop-opacity="0.95"/>
    <stop offset="60%" stop-color="#FFB3B3" stop-opacity="0.45"/>
    <stop offset="100%" stop-color="#FFB3B3" stop-opacity="0"/>
  </radialGradient>
  <radialGradient id="shadow" cx="50%" cy="50%">
    <stop offset="0%"  stop-color="#000" stop-opacity="0.4"/>
    <stop offset="100%" stop-color="#000" stop-opacity="0"/>
  </radialGradient>
  <radialGradient id="iris" cx="50%" cy="45%" r="60%">
    <stop offset="0%"  stop-color="#3A2418"/>
    <stop offset="80%" stop-color="#1F1208"/>
    <stop offset="100%" stop-color="#0D0703"/>
  </radialGradient>
  <radialGradient id="limb" cx="40%" cy="30%" r="80%">
    <stop offset="0%"  stop-color="#FFD978"/>
    <stop offset="60%" stop-color="#E8A93C"/>
    <stop offset="100%" stop-color="#B8742C"/>
  </radialGradient>
  <radialGradient id="chinShadow" cx="50%" cy="50%" r="50%">
    <stop offset="0%"  stop-color="#C77F18" stop-opacity="0.25"/>
    <stop offset="100%" stop-color="#C77F18" stop-opacity="0"/>
  </radialGradient>
  <linearGradient id="racerRed" x1="0" y1="0" x2="0" y2="1">
    <stop offset="0%" stop-color="#E53935"/>
    <stop offset="100%" stop-color="#8E0000"/>
  </linearGradient>
  <radialGradient id="astroDome" cx="35%" cy="30%" r="70%">
    <stop offset="0%"  stop-color="#E3F2FD" stop-opacity="0.5"/>
    <stop offset="60%" stop-color="#90CAF9" stop-opacity="0.15"/>
    <stop offset="100%" stop-color="#1976D2" stop-opacity="0.1"/>
  </radialGradient>
  <linearGradient id="silver" x1="0" y1="0" x2="0" y2="1">
    <stop offset="0%" stop-color="#ECEFF1"/>
    <stop offset="50%" stop-color="#B0BEC5"/>
    <stop offset="100%" stop-color="#607D8B"/>
  </linearGradient>
  <linearGradient id="wizardPurple" x1="0" y1="0" x2="0" y2="1">
    <stop offset="0%" stop-color="#9C27B0"/>
    <stop offset="100%" stop-color="#4A148C"/>
  </linearGradient>
  <linearGradient id="pirateBlack" x1="0" y1="0" x2="0" y2="1">
    <stop offset="0%" stop-color="#37474F"/>
    <stop offset="100%" stop-color="#000000"/>
  </linearGradient>
  <linearGradient id="ninjaBlack" x1="0" y1="0" x2="0" y2="1">
    <stop offset="0%" stop-color="#263238"/>
    <stop offset="100%" stop-color="#000000"/>
  </linearGradient>
</defs>
<ellipse cx="120" cy="232" rx="62" ry="8" fill="url(#shadow)"/>
<ellipse cx="195" cy="200" rx="11" ry="7" fill="url(#limb)" transform="rotate(28 195 200)"/>
<ellipse cx="201" cy="206" rx="4" ry="3" fill="#FFD978" opacity="0.8"/>
<path d="M 120 35 C 175 35, 205 75, 205 130 C 205 190, 175 220, 120 220 C 65 220, 35 190, 35 130 C 35 75, 65 35, 120 35 Z" fill="url(#body)"/>
<ellipse cx="120" cy="150" rx="60" ry="55" fill="url(#belly)"/>
<ellipse cx="120" cy="190" rx="55" ry="18" fill="url(#chinShadow)"/>
<ellipse cx="92" cy="62" rx="32" ry="18" fill="url(#sheen)"/>
<ellipse cx="78" cy="55" rx="9" ry="5" fill="#FFFFFF" opacity="0.7"/>
<ellipse cx="78" cy="190" rx="14" ry="11" fill="url(#limb)"/>
<ellipse cx="162" cy="190" rx="14" ry="11" fill="url(#limb)"/>
<ellipse cx="96" cy="220" rx="20" ry="12" fill="url(#limb)"/>
<ellipse cx="89" cy="215" rx="7" ry="3.5" fill="#FFD978" opacity="0.7"/>
<ellipse cx="144" cy="220" rx="20" ry="12" fill="url(#limb)"/>
<ellipse cx="137" cy="215" rx="7" ry="3.5" fill="#FFD978" opacity="0.7"/>
<ellipse cx="68" cy="150" rx="16" ry="11" fill="url(#cheek)"/>
<ellipse cx="172" cy="150" rx="16" ry="11" fill="url(#cheek)"/>
<path d="M 74 122 Q 92 132 110 122" stroke="#3A2418" stroke-width="4" stroke-linecap="round" fill="none"/>
<path d="M 130 122 Q 148 132 166 122" stroke="#3A2418" stroke-width="4" stroke-linecap="round" fill="none"/>
<path d="M 112 170 Q 120 176 128 170" stroke="#5C2618" stroke-width="3" stroke-linecap="round" fill="none"/>
<ellipse cx="220" cy="215" rx="14" ry="4" fill="#5C4B2A" opacity="0.4"/>
<path d="M 208 195 L 208 210 Q 208 214 212 214 L 228 214 Q 232 214 232 210 L 232 195 Z" fill="#F4E4C1" stroke="#5C4B2A" stroke-width="2"/>
<ellipse cx="220" cy="195" rx="12" ry="3" fill="#8B5A2B"/>
<path d="M 232 200 Q 244 200 244 207 Q 244 214 232 214" stroke="#5C4B2A" stroke-width="2" fill="none"/>
<path d="M 212 188 Q 215 180 212 172 Q 215 165 212 158" stroke="#B8B8B8" stroke-width="1.8" fill="none" opacity="0.7" stroke-linecap="round"/>
<path d="M 220 188 Q 223 180 220 172 Q 223 165 220 158" stroke="#B8B8B8" stroke-width="1.8" fill="none" opacity="0.7" stroke-linecap="round"/>
<path d="M 228 188 Q 231 180 228 172" stroke="#B8B8B8" stroke-width="1.8" fill="none" opacity="0.7" stroke-linecap="round"/>
<ellipse cx="120" cy="65" rx="95" ry="14" fill="#5E1187" stroke="#3D0058" stroke-width="2"/>
<ellipse cx="120" cy="63" rx="92" ry="10" fill="url(#wizardPurple)"/>
<path d="M 55 65 Q 70 50, 95 30 Q 115 10, 140 -10 Q 150 -16, 155 -8 Q 160 0, 155 8 Q 145 25, 175 65 Z" fill="url(#wizardPurple)" stroke="#3D0058" stroke-width="2"/>
<circle cx="151" cy="-7" r="4" fill="#FFD600" stroke="#B8860B" stroke-width="1"/>
<path d="M 58 60 Q 70 50, 95 35 Q 100 38, 80 56 Q 65 64, 58 60 Z" fill="#FFD600" stroke="#B8860B" stroke-width="1"/>
<g transform="translate(112 35)">
  <circle cx="0" cy="0" r="7" fill="#FFD600"/>
  <circle cx="3" cy="-1" r="6" fill="url(#wizardPurple)"/>
</g>
<g fill="#FFD600">
  <path d="M 92 50 L 94 54 L 98 55 L 94 56 L 92 60 L 90 56 L 86 55 L 90 54 Z"/>
  <path d="M 130 20 L 131.5 23.5 L 135 24.5 L 131.5 25.5 L 130 29 L 128.5 25.5 L 125 24.5 L 128.5 23.5 Z"/>
  <path d="M 145 50 L 146 52.5 L 148.5 53 L 146 54 L 145 56.5 L 144 54 L 141.5 53 L 144 52.5 Z"/>
</g>
<path d="M 70 55 Q 95 40, 110 30" stroke="#FFFFFF" stroke-width="2" fill="none" opacity="0.3" stroke-linecap="round"/>
</svg>